# AST/ASF file generated using VICON BodyLanguage
# -----------------------------------------------
:version 1.10
:name VICON
:units
  mass 1.0
  length 0.45
  angle deg
:documentation
   .ast/.asf automatically generated from VICON data using
   VICON BodyBuilder and BodyLanguage model FoxedUp or BRILLIANT.MOD
:root
   order TX TY TZ RX RY RZ
   axis XYZ
   position 0 0 0  
   orientation 0 0 0 
:bonedata
  begin
     id 1 
     name lhipjoint
     direction 0.576517 -0.752066 0.319413 
     length 2.45433 
     axis 0 0 0  XYZ
  end
  begin
     id 2 
     name lfemur
     direction 0.34202 -0.939693 0  
     length 7.54459  
     axis 0 0 20  XYZ
    dof rx ry rz
    limits (-160.0 20.0)
           (-70.0 70.0)
           (-60.0 70.0)
  end
  begin
     id 3 
     name ltibia
     direction 0.34202 -0.939693 0   
     length 7.73986   
     axis 0 0 20   XYZ
    dof rx
    limits (-10.0 170.0)
  end
  begin
     id 4 
     name lfoot
     direction 0.090693 -0.249177 0.964202   
     length 2.28437   
     axis -90 7.62852e-016 20   XYZ
    dof rx rz
    limits (-45.0 90.0)
           (-70.0 20.0)
  end
  begin
     id 5 
     name ltoes
     direction 1.5356e-011 -4.21928e-011 1   
     length 1.14243   
     axis -90 7.62852e-016 20   XYZ
    dof rx
    limits (-90.0 20.0)
  end
  begin
     id 6 
     name rhipjoint
     direction -0.573937 -0.753736 0.320122   
     length 2.44889  
     axis 0 0 0  XYZ 
  end
  begin
     id 7 
     name rfemur
     direction -0.34202 -0.939693 0   
     length 7.50166   
     axis 0 0 -20   XYZ
    dof rx ry rz
    limits (-160.0 20.0)
           (-70.0 70.0)
           (-70.0 60.0)
  end
  begin
     id 8 
     name rtibia
     direction -0.34202 -0.939693 0   
     length 7.54266   
     axis 0 0 -20   XYZ
    dof rx
    limits (-10.0 170.0)
 end
 begin
     id 9 
     name rfoot
     direction -0.114017 -0.31326 0.942798   
     length 2.34212  
     axis -90 -7.62852e-016 -20   XYZ
    dof rx rz
    limits (-45.0 90.0)
           (-20.0 70.0)
  end
  begin
     id 10 
     name rtoes
     direction -1.53557e-011 -4.21867e-011 1   
     length 1.16246   
     axis -90 -7.62852e-016 -20   XYZ
    dof rx
    limits (-90.0 20.0)
  end
  begin
     id 11 
     name lowerback
     direction -0.0228371 0.999155 -0.034167   
     length 2.0537   
     axis 0 0 0   XYZ
    dof rx ry rz
    limits (-20.0 45.0)
           (-30.0 30.0)
           (-30.0 30.0)
  end
  begin
     id 12 
     name upperback
     direction 0.0198981 0.999794 0.00389455   
     length 2.05302   
     axis 0 0 0   XYZ
    dof rx ry rz
    limits (-20.0 45.0)
           (-30.0 30.0)
           (-30.0 30.0)
  end
  begin
     id 13 
     name thorax
     direction 0.0304566 0.99935 0.0192987   
     length 2.05315   
     axis 0 0 0   XYZ
    dof rx ry rz
    limits (-20.0 45.0)
           (-30.0 30.0)
           (-30.0 30.0)
  end
  begin
     id 14 
     name lowerneck
     direction -0.0196762 0.99417 0.106017   
     length 1.82056   
     axis 0 0 0   XYZ
    dof rx ry rz
    limits (-20.0 45.0)
           (-30.0 30.0)
           (-30.0 30.0)
  end
  begin
     id 15 
     name upperneck
     direction 0.00517787 0.9802 -0.197944   
     length 1.83835   
     axis 0 0 0   XYZ
    dof rx ry rz
    limits (-20.0 45.0)
           (-30.0 30.0)
           (-30.0 30.0)
  end
  begin
     id 16
     name head
     direction 0.00211419 0.996945 -0.078081  
     length 1.85629  
     axis 0 0 0   XYZ
    dof rx ry rz
    limits (-20.0 45.0)
           (-30.0 30.0)
           (-30.0 30.0)
  end
  begin
     id 17 
     name lclavicle
     direction 0.930001 0.365811 -0.0357824  
     length 3.81961  
     axis 0 0 0   XYZ
    dof ry rz
    limits (-20.0 10.0)
           (0.0 20.0)
  end
  begin
     id 18 
     name lhumerus
     direction 1 -4.48968e-011 -3.06644e-027   
     length 5.14507   
     axis 180 -30 -90   XYZ
    dof rx ry rz
    limits (-60.0 90.0)
           (-90.0 90.0)
           (-90.0 90.0)
  end
  begin
     id 19
     name lradius
     direction 1 -4.48965e-011 9.06925e-028   
     length 3.50646   
     axis 180 -30 -90   XYZ
    dof rx
    limits (-10.0 170.0)
  end
  begin
     id 20
     name lwrist
     direction 1 -4.48957e-011 1.03922e-027   
     length 1.75323   
     axis -2.56395e-016 90 90   XYZ
    dof ry
    limits (-180.0 0.0)
 end
  begin
     id 21 
     name lhand
     direction 1 -4.48967e-011 2.08017e-027   
     length 0.629969   
     axis -1.32723e-015 90 90   XYZ
    dof rx rz
    limits (-90.0 90.0)
           (-45.0 45.0)
  end
  begin
     id 22 
     name lfingers
     direction 1 -4.49089e-011 4.20095e-027   
     length 0.507897   
     axis -2.6545e-015 90 90   XYZ
    dof rx
    limits (0.0 90.0)
  end
  begin
     id 23
     name lthumb
     direction 0.707107 -6.35001e-011 0.707107   
     length 0.729241   
     axis -90 45 5.05613e-014   XYZ
    dof rx rz
    limits (-45.0 45.0)
           (-45.0 45.0)
  end
  begin
     id 24 
     name rclavicle
     direction -0.881882 0.464123 -0.0829113   
     length 3.47515  
     axis 0 0 0   XYZ 
    dof ry rz
    limits (-10.0 20.0)
           (-20.0 0.0)
  end
  begin
     id 25 
     name rhumerus
     direction -1 -4.48961e-011 -1.55672e-027  
     length 5.232   
     axis 180 30 90   XYZ
    dof rx ry rz
    limits (-90.0 60.0)
           (-90.0 90.0)
           (-90.0 90.0)
  end
  begin
     id 26 
     name rradius
     direction -1 -4.48963e-011 6.18178e-029   
     length 3.65641   
     axis 180 30 90   XYZ
    dof rx
    limits (-10.0 170.0)
  end
  begin
     id 27 
     name rwrist
     direction -1 -4.48982e-011 1.04136e-027   
     length 1.8282   
     axis -2.56395e-016 -90 -90   XYZ
    dof ry
    limits (-180.0 0.0)
  end
  begin
     id 28
     name rhand
     direction -1 -4.48929e-011 2.07378e-027   
     length 0.656807   
     axis -1.32723e-015 -90 -90   XYZ
    dof rx rz
    limits (-90.0 90.0)
           (-45.0 45.0)
  end
  begin
     id 29
     name rfingers
     direction -1 -4.489e-011 4.13816e-027   
     length 0.529535   
     axis -2.6545e-015 -90 -90   XYZ
    dof rx
    limits (0.0 90.0)
  end
  begin
     id 30
     name rthumb
     direction -0.707107 -6.34843e-011 0.707107   
     length 0.760309   
     axis -90 -45 -5.05613e-014   XYZ
    dof rx rz
    limits (-45.0 45.0)
           (-45.0 45.0)
  end
:hierarchy
  begin
    root lhipjoint rhipjoint lowerback
    lhipjoint lfemur
    lfemur ltibia
    ltibia lfoot
    lfoot ltoes
    rhipjoint rfemur
    rfemur rtibia
    rtibia rfoot
    rfoot rtoes
    lowerback upperback
    upperback thorax
    thorax lowerneck lclavicle rclavicle
    lowerneck upperneck
    upperneck head
    lclavicle lhumerus
    lhumerus lradius
    lradius lwrist
    lwrist lhand lthumb
    lhand lfingers
    rclavicle rhumerus
    rhumerus rradius
    rradius rwrist
    rwrist rhand rthumb
    rhand rfingers
  end

#!OML:ASF H:\ManfredETheater\Project 1\Capture day 1\Session 1\subject.ASF
:FULLY-SPECIFIED
:DEGREES
1
root -1.96799 15.6383 42.1325 -154.498 9.61721 -173.57
lowerback 16.2701 0.410395 5.42185
upperback 0.263885 2.28883 4.03441
thorax -8.8515 1.11015 0.72316
lowerneck -18.0655 -0.0979186 1.14562
upperneck -1.20379 0.38348 -3.39336
head 2.78323 0.296695 -1.28711
rclavicle -4.53229e-014 -8.18993e-014
rhumerus -32.267 15.8523 -92.6673
rradius 86.8197
rwrist -3.41504
rhand -24.2458 1.062
rfingers 7.12502
rthumb 2.24 -28.906
lclavicle -4.53229e-014 -8.18993e-014
lhumerus -78.7279 -7.36482 93.9781
lradius 88.025
lwrist 11.0171
lhand -26.5498 -2.41489
lfingers 7.12502
lthumb 0.0147218 27.5649
rfemur 1.6182 5.15949 22.3184
rtibia 36.6058
rfoot 29.0587 -15.2117
rtoes -6.37733
lfemur -75.0493 9.74858 -22.9408
ltibia 74.3826
lfoot -10.9887 -12.6221
ltoes -11.3104
2
root -1.94154 15.6489 41.6384 -154.549 9.07701 -173.726
lowerback 15.9709 0.0784547 5.49442
upperback 0.296043 1.83398 4.05077
thorax -8.65625 0.89319 0.808793
lowerneck -17.6618 0.0164371 1.16654
upperneck -1.55159 0.516701 -3.18932
head 2.58855 0.37899 -1.20752
rclavicle -3.18055e-015 -1.59028e-015
rhumerus -33.8608 14.0122 -92.9426
rradius 83.7665
rwrist -3.17228
rhand -23.7929 0.577697
rfingers 7.12502
rthumb 2.67739 -29.3852
lclavicle -3.18055e-015 -1.59028e-015
lhumerus -76.1705 -6.67138 93.9133
lradius 88.1005
lwrist 10.9616
lhand -26.5862 -2.84019
lfingers 7.12502
lthumb -0.020445 27.1396
rfemur -1.06504 3.78973 22.2325
rtibia 42.6948
rfoot 26.4264 -3.55029
rtoes -23.6339
lfemur -71.7649 9.34556 -23.1571
ltibia 73.3733
lfoot -15.4627 -12.9067
ltoes -7.30721
3
root -1.91577 15.6773 41.1426 -154.706 8.4409 -174.028
lowerback 16.0763 -0.225196 5.4372
upperback 0.225017 1.43286 4.07075
thorax -8.80434 0.698366 0.956264
lowerneck -17.6448 0.099796 1.37209
upperneck -1.60126 0.585871 -3.20922
head 2.57146 0.412995 -1.24538
rclavicle -3.57812e-015 -2.78299e-015
rhumerus -35.471 11.8056 -92.8928
rradius 80.5833
rwrist -3.02608
rhand -23.6637 -0.307141
rfingers 7.12502
rthumb 2.8021 -30.2685
lclavicle -3.57812e-015 -2.78299e-015
lhumerus -73.4504 -6.29893 94.1001
lradius 88.1431
lwrist 11.062
lhand -26.9936 -2.64078
lfingers 7.12502
lthumb -0.413951 27.3386
rfemur -4.13146 2.03478 21.9452
rtibia 49.1341
rfoot 20.2132 2.02264
rtoes -26.4543
lfemur -68.1357 8.86969 -23.5
ltibia 71.7496
lfoot -17.8521 -15.3337
ltoes 8.87711
4
root -1.89523 15.6829 40.6546 -154.714 7.73471 -174.635
lowerback 15.8881 -0.62027 5.28066
upperback 0.0703974 0.847666 4.02176
thorax -8.87899 0.411512 1.13107
lowerneck -17.3587 0.240516 1.49848
upperneck -1.71359 0.738095 -3.22919
head 2.48524 0.487034 -1.2613
rclavicle -3.77691e-014 -7.95139e-016
rhumerus -37.2166 9.58263 -92.5981
rradius 77.4748
rwrist -3.08874
rhand -23.6408 -0.820078
rfingers 7.12502
rthumb 2.82427 -30.7811
lclavicle -3.77691e-014 -7.95139e-016
lhumerus -70.6294 -5.88539 94.3218
lradius 88.016
lwrist 10.9957
lhand -27.5456 -2.28722
lfingers 7.12502
lthumb -0.94702 27.6904
rfemur -7.37884 0.209465 21.4099
rtibia 55.1088
rfoot 18.1997 0.742177
rtoes -19.3565
lfemur -64.7955 8.24798 -24.243
ltibia 70.1665
lfoot -21.1422 -12.1292
ltoes 13.3826
5
root -1.87883 15.7382 40.1597 -154.957 7.3421 -176.236
lowerback 16.0178 -1.00263 4.11686
upperback -0.1468 0.0618279 3.74553
thorax -9.19538 0.0500523 1.68334
lowerneck -17.2452 0.402061 1.56106
upperneck -1.71422 0.931148 -3.23656
head 2.47001 0.579464 -1.26025
rclavicle -1.63003e-014 3.61788e-014
rhumerus -38.6027 7.15561 -91.9065
rradius 73.7858
rwrist -4.03297
rhand -24.513 -1.34404
rfingers 7.12502
rthumb 1.98193 -31.3146
lclavicle -1.63003e-014 3.61788e-014
lhumerus -67.3531 -5.67552 94.6662
lradius 87.9571
lwrist 10.4481
lhand -28.5263 -1.55292
lfingers 7.12502
lthumb -1.89417 28.4184
rfemur -11.3995 -1.40214 19.8434
rtibia 61.085
rfoot 16.0492 -1.11995
rtoes -13.4292
lfemur -61.9103 7.30045 -25.9612
ltibia 68.8205
lfoot -23.2053 -11.4439
ltoes 13.3244
6
root -1.85781 15.7357 39.6838 -155.12 6.85458 -177.458
lowerback 16.0552 -1.35682 3.27124
upperback -0.289153 -0.61393 3.56073
thorax -9.36054 -0.256374 2.12963
lowerneck -17.1304 0.522181 1.62159
upperneck -1.82593 1.07559 -3.19619
head 2.4142 0.654637 -1.24606
rclavicle -3.18055e-014 -3.49861e-014
rhumerus -40.073 4.69302 -90.9532
rradius 70.5787
rwrist -4.68569
rhand -24.7223 -2.07304
rfingers 7.12502
rthumb 1.77974 -32.0454
lclavicle -3.18055e-014 -3.49861e-014
lhumerus -64.1938 -5.52822 94.9476
lradius 87.9745
lwrist 10.2444
lhand -29.0067 -1.12664
lfingers 7.12502
lthumb -2.35815 28.8401
rfemur -14.9134 -3.02849 18.6638
rtibia 66.8768
rfoot 12.883 -1.3516
rtoes -10.062
lfemur -58.9431 6.42918 -27.1288
ltibia 67.5142
lfoot -25.3326 -10.8317
ltoes 16.611
7
root -1.83741 15.7275 39.2139 -155.315 6.38294 -178.881
lowerback 16.1545 -1.71027 2.24042
upperback -0.435478 -1.3295 3.33655
thorax -9.5451 -0.571912 2.65286
lowerneck -17.0451 0.631551 1.65626
upperneck -1.96092 1.21325 -3.13212
head 2.35502 0.728878 -1.22006
rclavicle 2.22639e-014 -3.18055e-014
rhumerus -41.5438 2.12165 -89.6401
rradius 67.4574
rwrist -5.55481
rhand -25.0448 -2.81223
rfingers 7.12502
rthumb 1.46832 -32.7869
lclavicle 2.22639e-014 -3.18055e-014
lhumerus -60.8712 -5.549 95.2447
lradius 88.0476
lwrist 10.0488
lhand -29.4006 -0.674294
lfingers 7.12502
lthumb -2.73859 29.2879
rfemur -18.5808 -4.67167 17.272
rtibia 72.4542
rfoot 9.96322 -1.99651
rtoes -6.3592
lfemur -56.1159 5.38967 -28.3855
ltibia 66.4099
lfoot -27.1146 -10.3326
ltoes 18.8103
8
root -1.81802 15.7116 38.7495 -155.522 5.91863 -180.381
lowerback 16.2919 -2.05895 1.15213
upperback -0.579664 -2.05242 3.09514
thorax -9.72793 -0.883712 3.19625
lowerneck -16.9651 0.725032 1.65624
upperneck -2.12921 1.33779 -3.02294
head 2.28395 0.799877 -1.17406
rclavicle 3.79679e-014 4.45278e-014
rhumerus -43.0739 -0.524938 -87.9561
rradius 64.4917
rwrist -6.4978
rhand -25.4798 -3.51904
rfingers 7.12502
rthumb 1.04812 -33.4962
lclavicle 3.79679e-014 4.45278e-014
lhumerus -57.4229 -5.74294 95.5238
lradius 88.2237
lwrist 9.87063
lhand -29.6596 -0.27751
lfingers 7.12502
lthumb -2.98872 29.6813
rfemur -22.3944 -6.27841 15.8019
rtibia 77.7326
rfoot 7.18312 -2.63773
rtoes -3.52024
lfemur -53.4146 4.21543 -29.6075
ltibia 65.4326
lfoot -28.5431 -9.85882
ltoes 19.4569
9
root -1.79986 15.6885 38.2894 -155.745 5.4456 -181.841
lowerback 16.4663 -2.39634 0.126096
upperback -0.709541 -2.74721 2.85526
thorax -9.90063 -1.17889 3.70268
lowerneck -16.8943 0.79603 1.62909
upperneck -2.31859 1.43855 -2.8634
head 2.20562 0.862021 -1.10868
rclavicle 1.49089e-014 -3.97569e-015
rhumerus -44.7074 -3.22109 -85.8975
rradius 61.7302
rwrist -7.27349
rhand -26.0142 -4.12762
rfingers 7.12502
rthumb 0.532052 -34.1067
lclavicle 1.49089e-014 -3.97569e-015
lhumerus -53.8976 -6.11349 95.7572
lradius 88.5687
lwrist 9.69966
lhand -29.7582 0.0199303
lfingers 7.12502
lthumb -3.08391 29.9774
rfemur -26.3381 -7.81326 14.3843
rtibia 82.6664
rfoot 4.40253 -3.19023
rtoes -1.58984
lfemur -50.8203 2.96198 -30.6998
ltibia 64.6155
lfoot -29.6599 -9.67139
ltoes 19.3241
10
root -1.78278 15.6585 37.8318 -155.961 4.96681 -183.167
lowerback 16.6218 -2.71505 -0.748884
upperback -0.821723 -3.38504 2.63402
thorax -10.0369 -1.44902 4.12911
lowerneck -16.821 0.845985 1.57996
upperneck -2.51007 1.51524 -2.65978
head 2.12467 0.913882 -1.02714
rclavicle -3.89618e-014 3.10104e-014
rhumerus -46.5063 -5.8924 -83.4827
rradius 59.2455
rwrist -7.63015
rhand -26.6176 -4.6071
rfingers 7.12502
rthumb -0.0507262 -34.5868
lclavicle -3.89618e-014 3.10104e-014
lhumerus -50.3699 -6.62539 95.9209
lradius 89.1529
lwrist 9.50401
lhand -29.6808 0.234082
lfingers 7.12502
lthumb -3.0092 30.1926
rfemur -30.4262 -9.22477 13.1391
rtibia 87.1732
rfoot 1.6926 -3.66501
rtoes -0.436229
lfemur -48.314 1.70519 -31.6058
ltibia 63.9251
lfoot -30.5201 -9.6309
ltoes 18.6559
11
root -1.76709 15.6239 37.3732 -156.177 4.50778 -184.287
lowerback 16.7494 -3.00545 -1.42015
upperback -0.920636 -3.93963 2.44471
thorax -10.1474 -1.68538 4.45238
lowerneck -16.7435 0.881505 1.5137
upperneck -2.65955 1.57329 -2.43463
head 2.05652 0.955379 -0.937523
rclavicle -6.89783e-014 3.22031e-014
rhumerus -48.5256 -8.44351 -80.7388
rradius 57.0767
rwrist -7.3951
rhand -27.2544 -4.86227
rfingers 7.12502
rthumb -0.665759 -34.841
lclavicle -6.89783e-014 3.22031e-014
lhumerus -46.9452 -7.21268 96.0129
lradius 90.0342
lwrist 9.22925
lhand -29.4397 0.352055
lfingers 7.12502
lthumb -2.77638 30.3137
rfemur -34.6335 -10.4488 12.1496
rtibia 91.1658
rfoot -0.864501 -4.14314
rtoes 0.185499
lfemur -45.8409 0.554289 -32.315
ltibia 63.2896
lfoot -31.2005 -9.66306
ltoes 17.5501
12
root -1.75273 15.5881 36.9093 -156.414 4.08934 -185.184
lowerback 16.819 -3.26917 -1.87649
upperback -0.998042 -4.41008 2.28424
thorax -10.2134 -1.89084 4.65921
lowerneck -16.6539 0.915468 1.44122
upperneck -2.7437 1.62574 -2.20519
head 2.00842 0.991163 -0.846455
rclavicle -1.59028e-015 1.82882e-014
rhumerus -50.773 -10.7582 -77.744
rradius 55.2725
rwrist -6.56226
rhand -27.8882 -4.91699
rfingers 7.12502
rthumb -1.27792 -34.8929
lclavicle -1.59028e-015 1.82882e-014
lhumerus -43.7217 -7.81087 96.0296
lradius 91.274
lwrist 8.84629
lhand -29.1222 0.421226
lfingers 7.12502
lthumb -2.46976 30.3867
rfemur -38.9047 -11.434 11.449
rtibia 94.5593
rfoot -3.15923 -4.6662
rtoes 0.64522
lfemur -43.3081 -0.404839 -32.8493
ltibia 62.6161
lfoot -31.7608 -9.81459
ltoes 16.3154
13
root -1.73977 15.5543 36.4373 -156.669 3.7568 -185.871
lowerback 16.807 -3.49607 -2.16403
upperback -1.05343 -4.79165 2.15068
thorax -10.2232 -2.063 4.76993
lowerneck -16.5779 0.957488 1.37068
upperneck -2.73311 1.68293 -1.99623
head 1.99557 1.02476 -0.762501
rclavicle -4.05521e-014 4.13472e-014
rhumerus -53.2118 -12.7452 -74.5719
rradius 53.8782
rwrist -5.24184
rhand -28.4234 -4.84683
rfingers 7.12502
rthumb -1.79479 -34.819
lclavicle -4.05521e-014 4.13472e-014
lhumerus -40.7679 -8.37913 95.9854
lradius 92.8966
lwrist 8.37475
lhand -28.7888 0.478834
lfingers 7.12502
lthumb -2.14776 30.4478
rfemur -43.2204 -12.1319 11.0179
rtibia 97.2877
rfoot -5.1251 -5.24503
rtoes 0.986009
lfemur -40.664 -1.1083 -33.26
ltibia 61.8034
lfoot -32.2099 -10.0461
ltoes 15.199
